<?xml version="1.0" encoding="UTF-8" standalone="no"?>
<!-- Created with Inkscape (http://www.inkscape.org/) -->

<svg
   xmlns:dc="http://purl.org/dc/elements/1.1/"
   xmlns:cc="http://creativecommons.org/ns#"
   xmlns:rdf="http://www.w3.org/1999/02/22-rdf-syntax-ns#"
   xmlns:svg="http://www.w3.org/2000/svg"
   xmlns="http://www.w3.org/2000/svg"
   xmlns:xlink="http://www.w3.org/1999/xlink"
   xmlns:sodipodi="http://sodipodi.sourceforge.net/DTD/sodipodi-0.dtd"
   xmlns:inkscape="http://www.inkscape.org/namespaces/inkscape"
   width="600"
   height="660"
   id="CoatOfArmsSVG"
   inkscape:version="0.92.4 (unknown)"
   sodipodi:docname="BLA8FW0.svg">
  <metadata
     id="metadata39">
    <rdf:RDF>
      <cc:Work
         rdf:about="">
        <dc:format>image/svg+xml</dc:format>
        <dc:type
           rdf:resource="http://purl.org/dc/dcmitype/StillImage" />
        <dc:title />
      </cc:Work>
    </rdf:RDF>
  </metadata>
  <sodipodi:namedview
     pagecolor="#ffffff"
     bordercolor="#666666"
     borderopacity="1"
     objecttolerance="10"
     gridtolerance="10"
     guidetolerance="10"
     inkscape:pageopacity="0"
     inkscape:pageshadow="2"
     inkscape:window-width="1100"
     inkscape:window-height="850"
     id="namedview37"
     showgrid="false"
     inkscape:zoom="0.35355339"
     inkscape:cx="580.48386"
     inkscape:cy="41.894233"
     inkscape:window-x="491"
     inkscape:window-y="138"
     inkscape:window-maximized="0"
     inkscape:current-layer="CHFxPARxAU2"
     inkscape:snap-nodes="false" />
  <desc
     id="desc4">Template for The Blazoon Projet</desc>
  <defs
     id="defsBlazoon">
    <linearGradient
       id="linearGradient3D">
      <stop
         id="stop2895"
         style="stop-color:#ffffff;stop-opacity:0.3"
         offset="0" />
      <stop
         id="stop2897"
         style="stop-color:#ffffff;stop-opacity:0.25"
         offset="0.19" />
      <stop
         id="stop2901"
         style="stop-color:#6b6b6b;stop-opacity:0.125"
         offset="0.60000002" />
      <stop
         id="stop2899"
         style="stop-color:#000000;stop-opacity:0.125"
         offset="1" />
    </linearGradient>
    <radialGradient
       cx="221.44487"
       cy="226.33101"
       r="300"
       fx="221.44487"
       fy="226.33101"
       id="effet-3d-ecu"
       xlink:href="#linearGradient3D"
       gradientUnits="userSpaceOnUse"
       gradientTransform="matrix(1.353218,0,0,1.348928,-77.62935,-85.74693)" />
  </defs>
  <g
     id="base" />
  <g
     inkscape:groupmode="layer"
     id="fond"
     inkscape:label="0 - fond"
     style="display:inline">
    <path
       inkscape:connector-curvature="0"
       style="fill:#e20909;fill-opacity:1;fill-rule:evenodd;stroke:#000000;stroke-width:1px;stroke-linecap:butt;stroke-linejoin:miter;stroke-opacity:1"
       id="ecu-fond"
       d="m 300,658.5 c 0,0 298.5,-112.5 298.5,-397.5 0,-285.5 0,-258.5 0,-258.5 l -597,0 0,258.5 C 1.5,546 300,658.5 300,658.5 Z" />
  </g>
  <g
     inkscape:groupmode="layer"
     id="partition"
     inkscape:label="1 - partition"
     style="display:inline">
    <g
       inkscape:label="PAR"
       inkscape:groupmode="layer"
       id="PAR"
       transform="translate(0,-392.36216)"
       style="display:inline">
      <path
         style="color:#000000;clip-rule:nonzero;display:inline;overflow:visible;visibility:visible;opacity:1;isolation:auto;mix-blend-mode:normal;color-interpolation:sRGB;color-interpolation-filters:linearRGB;solid-color:#000000;solid-opacity:1;fill:#5ab532;fill-opacity:1;fill-rule:evenodd;stroke:#000000;stroke-width:3;stroke-linecap:round;stroke-linejoin:bevel;stroke-miterlimit:4;stroke-dasharray:none;stroke-dashoffset:0;stroke-opacity:1;color-rendering:auto;image-rendering:auto;shape-rendering:auto;text-rendering:auto;enable-background:accumulate"
         d="M 301.5 1.5 L 301.5 657.10352 C 312.22228 652.98297 599 540.1756 599 260 L 599 1.5 L 301.5 1.5 z "
         transform="translate(0,392.36216)"
         id="rect4139" />
    </g>
  </g>
  <g
     style="display:inline"
     inkscape:label="4 - pièces"
     id="pieces"
     inkscape:groupmode="layer">
    <g
       inkscape:label="CHFxPARxAU2"
       inkscape:groupmode="layer"
       id="CHFxPARxAU2"
       transform="translate(0,-392.36216)"
       style="display:inline">
      <path
         style="display:inline;fill:#ffffff;fill-opacity:1;stroke:#000000;stroke-width:3"
         d="m 1.5,394.35956 h 597 V 572.36475 H 1.5 Z"
         id="rect4"
         inkscape:connector-curvature="0"
         sodipodi:nodetypes="ccccc" />
    </g>
  </g>
  <g
     inkscape:groupmode="layer"
     id="meubles"
     inkscape:label="6 - meubles"
     style="display:inline">
    <g
       inkscape:label="TETxBUF"
       inkscape:groupmode="layer"
       id="TETxBUF"
       transform="translate(-155.94323,-499.4326)"
       style="display:inline">
      <g
         style="display:inline;stroke-width:3.53813226;stroke-miterlimit:4;stroke-dasharray:none"
         id="g1480"
         transform="matrix(0.84790499,0,0,0.84790499,34.933025,215.44069)">
        <path
           inkscape:connector-curvature="0"
           id="path823"
           d="m 408.98849,669.13462 c 0.48778,-13.15718 -4.02489,-33.12281 -12.83409,-56.7803 -4.77519,-12.82391 -9.36079,-26.35278 -10.19028,-30.0642 l -1.50817,-6.74804 -3.05984,11.20384 c -3.56876,13.06715 -2.36563,23.95752 5.84269,52.88662 2.75543,9.71114 5.3645,21.33302 5.79791,25.82643 0.60686,6.29161 1.72407,8.39456 4.85963,9.14721 10.14276,2.43461 10.8112,2.10489 11.09215,-5.47156 z"
           style="fill:#ffffff;stroke:#000000;stroke-width:3.53813226;stroke-miterlimit:4;stroke-dasharray:none" />
        <path
           inkscape:connector-curvature="0"
           id="path1462"
           d="m 467.47618,840.81457 c 7.85585,-4.88352 7.35957,-30.42766 4.77719,-36.829 -6.43616,-12.1147 -13.83554,-22.72508 -16.60328,-35.75375 -1.67133,-8.13458 -15.04534,-36.0732 -19.70634,-45.5909 -0.66394,-1.35578 -2.17312,-6.53238 -3.35372,-11.50357 -4.9427,-20.81233 -14.37694,-34.02282 -27.48755,-38.49005 -10.9693,-3.73762 -35.68898,-3.55583 -40.58895,0.29849 -33.31031,15.94038 -47.4785,45.32083 -76.514,35.62737 -11.89733,-3.89696 -26.5048,-11.72966 -44.59026,-23.9098 l -9.22755,-6.21453 -4.14942,4.42986 c -14.52564,15.50734 -16.90718,44.98332 -4.90577,60.71799 2.41026,3.16001 6.89185,12.86407 9.95909,21.56459 4.55482,12.92021 5.83847,19.58357 7.00473,36.36122 5.11593,73.59692 4.15171,69.62805 24.57694,101.16253 7.19678,11.11102 13.08506,20.83471 13.08506,21.60813 0,0.77342 2.66266,5.66304 5.91702,10.86582 l 5.91702,9.45961 4.03179,-4.35035 c 2.21747,-2.39271 6.14362,-9.63073 8.72477,-16.08449 13.96944,-34.92842 23.72142,-50.95836 40.75,-66.98316 12.5284,-11.78991 39.56985,-29.36765 43.74101,-29.36765 8.30402,1.90225 31.24562,10.11111 45.92892,13.41505 10.63741,3.21136 23.12589,1.8783 32.7133,-0.43341 z"
           style="fill:#ffffff;stroke:#000000;stroke-width:3.53813226;stroke-miterlimit:4;stroke-dasharray:none" />
        <path
           sodipodi:nodetypes="ccc"
           inkscape:connector-curvature="0"
           id="path1460"
           d="m 294.59886,882.72521 c 14.42782,-44.1265 54.85811,-54.65343 77.22686,-70.86468 4.14519,9.73584 6.34232,9.04551 15.67137,9.7931"
           style="fill:none;stroke:#000000;stroke-width:3.53813226;stroke-miterlimit:4;stroke-dasharray:none" />
        <path
           sodipodi:nodetypes="cccc"
           inkscape:connector-curvature="0"
           id="path1458"
           d="m 358.42641,733.52718 c -19.41167,32.76424 -34.29641,49.74333 -72.46556,67.96302 3.81767,-25.72734 3.82175,-59.09956 26.47079,-72.53315 8.79682,-5.02407 23.65798,-10.25476 33.37101,-10.35144"
           style="fill:none;stroke:#000000;stroke-width:3.53813226;stroke-miterlimit:4;stroke-dasharray:none" />
        <path
           sodipodi:nodetypes="cc"
           inkscape:connector-curvature="0"
           id="path1456"
           d="m 308.30335,767.18906 c -0.6596,-11.33202 21.42595,-29.67336 29.99996,-31.17713"
           style="fill:none;stroke:#000000;stroke-width:3.53813226;stroke-miterlimit:4;stroke-dasharray:none" />
        <path
           sodipodi:nodetypes="cscccscc"
           inkscape:connector-curvature="0"
           id="path1454"
           d="m 416.81038,760.82405 c -1.13142,-1.12981 -3.41787,0.53962 -6.72955,0.53962 -5.11435,0 -6.99451,-1.4215 -8.38762,-5.34229 -1.24188,-3.49519 0.14313,-4.32614 1.82155,-5.36345 1.71536,-1.06016 1.38324,-1.81601 -1.46853,-3.34222 -2.52079,-1.34908 -5.43461,-2.50539 -4.28042,-3.65958 2.50984,-2.50984 15.0352,4.97415 19.55485,11.68419 6.87669,9.26193 5.63563,11.5525 -0.51028,5.48373 z"
           style="fill:#000000;stroke:none;stroke-width:3.53813226;stroke-miterlimit:4;stroke-dasharray:none" />
        <path
           sodipodi:nodetypes="cc"
           inkscape:connector-curvature="0"
           id="path1452"
           d="m 406.60281,683.48343 c 0.52152,4.88224 -5.9241,10.45787 -11.63235,10.37362"
           style="fill:none;stroke:#000000;stroke-width:3.53813226;stroke-miterlimit:4;stroke-dasharray:none" />
        <path
           sodipodi:nodetypes="cccsccsc"
           inkscape:connector-curvature="0"
           id="path1450"
           d="m 380.18085,712.37351 c 3.88855,-3.88852 5.29251,-7.02081 5.29251,-11.80767 -3.62993,-13.55003 -13.49562,-10.97953 -24.99737,-19.36046 -2.0902,-4.7765 -27.13056,-47.3055 -33.92498,-57.61875 -14.53888,-22.06862 -29.3563,-33.5122 -43.14484,-32.16612 11.4097,12.5791 41.57919,55.04895 52.30953,86.01853 11.06549,24.38447 17.15431,32.6461 26.39397,38.28043 7.67388,4.67952 11.90453,2.82069 18.07118,-3.34596 z"
           style="fill:#ffffff;stroke:#000000;stroke-width:3.53813226;stroke-miterlimit:4;stroke-dasharray:none" />
        <path
           inkscape:connector-curvature="0"
           id="path1468"
           d="m 441.19023,825.00754 c 2.20173,6.28778 21.65697,15.57065 26.28595,15.80703"
           style="fill:#000000;stroke:#000000;stroke-width:3.53813226;stroke-miterlimit:4;stroke-dasharray:none" />
        <path
           sodipodi:nodetypes="cccc"
           inkscape:connector-curvature="0"
           id="path1464"
           d="m 455.43637,815.32923 c 3.5887,8.35504 11.86915,4.98068 18.46807,5.81019 0.57238,-7.21494 0.40654,-14.3504 -1.65107,-17.15385 -7.00645,12.25921 -15.71773,5.39413 -16.817,11.34366 z"
           style="fill:#000000;stroke:#000000;stroke-width:3.53813226;stroke-linecap:butt;stroke-linejoin:miter;stroke-opacity:1;stroke-miterlimit:4;stroke-dasharray:none" />
      </g>
    </g>
    <g
       inkscape:label="TETxGAZ"
       inkscape:groupmode="layer"
       id="TETxGAZ"
       transform="translate(-157.1098,-568.36954)"
       style="display:inline">
      <g
         id="g840"
         transform="matrix(0.84790499,0,0,0.84790499,354.70232,336.61479)"
         style="stroke-width:3.53813226;stroke-miterlimit:4;stroke-dasharray:none">
        <path
           inkscape:connector-curvature="0"
           id="path825"
           d="m 255.29271,651.27564 c 0,-4.33502 7.98511,-10.10903 25.76994,-18.63422 l 17.41227,-8.34656 -9.1877,1.07121 c -16.39637,1.9117 -27.93538,6.12396 -37.5113,13.6933 -5.14031,4.06318 -9.34599,8.0356 -9.34599,8.82765 0,0.79206 2.27393,2.33865 5.05324,3.43688 6.96081,2.75057 7.80954,2.74534 7.80954,-0.0483 z"
           style="display:inline;fill:#ffffff;stroke:#000000;stroke-width:3.53813226;stroke-miterlimit:4;stroke-dasharray:none" />
        <path
           sodipodi:nodetypes="cc"
           inkscape:connector-curvature="0"
           id="path1446"
           d="m 250.53899,653.97106 c 2.79519,14.27462 -8.06091,14.05251 -12.47548,7.34767"
           style="display:inline;fill:none;stroke:#000000;stroke-width:3.53813226;stroke-miterlimit:4;stroke-dasharray:none" />
        <path
           sodipodi:nodetypes="cc"
           inkscape:connector-curvature="0"
           id="path1444"
           d="m 245.73484,709.16141 c 4.10484,8.21587 5.35442,19.64364 -2.07014,24.73073"
           style="display:inline;fill:none;stroke:#000000;stroke-width:3.53813226;stroke-miterlimit:4;stroke-dasharray:none" />
        <path
           id="path1442"
           d="m 187.68565,705.69896 c -3.45897,4.8496 -8.61659,13.02098 -13.9834,22.28415 -16.29349,28.12279 -17.26692,31.49586 -12.86148,44.56575 2.02906,6.01973 2.64002,6.49512 8.9359,6.953 10.14594,0.73787 18.62187,-4.47239 36.57661,-22.48407 12.47985,-12.5194 17.61074,-16.53262 24.00127,-18.77303 6.06824,-3.01729 10.83554,-3.95156 17.59357,-1.90495 1.91482,0.72225 2.97819,2.21702 6.78989,4.36908 11.48482,6.48424 17.1118,11.35317 61.3746,53.10636 21.12112,19.92359 39.08517,35.80252 39.92013,35.28649 0.83496,-0.51604 6.85214,-7.27271 13.37152,-15.01485 25.02893,-29.72323 35.68614,-46.08263 34.78084,-53.39046 -0.40688,-3.28435 -3.2556,-4.92623 -19.85956,-11.44612 -21.38696,-8.39806 -29.72285,-12.43316 -42.43505,-20.54128 -4.68164,-2.98606 -9.27907,-5.4292 -10.21652,-5.4292 -4.1832,0 -28.13078,-20.42129 -51.9238,-44.27802 l -25.92152,-25.99094 c -24.01226,-13.97568 -29.91569,-21.88298 -52.8572,-5.9483 -9.23164,6.67621 -16.08217,38.00051 -13.10449,48.67057 0.95588,2.92671 2.20982,5.7375 -0.18131,9.96582 z"
           style="display:inline;fill:#ffffff;stroke:#000000;stroke-width:3.53813226;stroke-miterlimit:4;stroke-dasharray:none"
           inkscape:connector-curvature="0" />
        <path
           sodipodi:nodetypes="cc"
           inkscape:connector-curvature="0"
           id="path1438"
           d="m 191.04214,697.96299 c 3.53019,-11.19249 14.73765,-19.96438 27.26573,-18.66398"
           style="display:inline;fill:none;stroke:#000000;stroke-width:3.53813226;stroke-miterlimit:4;stroke-dasharray:none" />
        <path
           sodipodi:nodetypes="ccc"
           inkscape:connector-curvature="0"
           id="path1436"
           d="m 163.53789,752.87587 c 5.57166,-1.07895 9.51769,8.99 4.81158,13.69609 -1.54401,1.54402 -3.83072,2.18181 -5.1333,1.77385"
           style="display:inline;fill:none;stroke:#000000;stroke-width:3.53813226;stroke-miterlimit:4;stroke-dasharray:none" />
        <path
           inkscape:connector-curvature="0"
           id="path1432"
           d="m 224.72221,655.46497 c 6.8793,-3.50957 7.71243,-4.71202 7.75366,-11.19093 0.0951,-14.95973 14.36709,-41.16955 33.91494,-62.28358 6.17203,-6.6665 10.67213,-12.12092 10.00021,-12.12092 -3.4949,0 -36.02419,17.97546 -41.10654,22.71524 -7.56601,7.05595 -15.44906,18.76263 -26.85034,39.87391 l -9.10117,16.85227 5.9933,5.04304 c 7.21753,6.07312 9.42181,6.19938 19.39594,1.11097 z"
           style="display:inline;fill:#ffffff;stroke:#000000;stroke-width:3.53813226;stroke-miterlimit:4;stroke-dasharray:none" />
        <path
           id="path1434"
           d="m 199.99735,698.36769 c -1.47302,-3.83859 2.36903,-9.01081 6.69341,-9.01081 2.18989,0 3.98164,-0.72692 3.98164,-1.61537 0,-0.88846 0.80467,-1.61538 1.7882,-1.61538 1.07297,0 1.31904,1.1307 0.61529,2.82691 -0.64511,1.5548 -1.20453,3.91729 -1.24312,5.24998 -0.15297,5.27896 -10.06888,8.76821 -11.83542,4.16467 z"
           style="display:inline;fill:#000000;stroke:none;stroke-width:3.53813226;stroke-miterlimit:4;stroke-dasharray:none"
           inkscape:connector-curvature="0" />
      </g>
    </g>
    <g
       inkscape:groupmode="layer"
       id="layer1"
       inkscape:label="BRN">
      <path
         style="fill:#5ab532;stroke:#000000;stroke-width:3;stroke-linecap:butt;stroke-linejoin:miter;stroke-opacity:1"
         d="m 356.2605,141.43337 c 3.71515,5.9701 14.88951,9.38385 13.43503,16.26346 -0.98116,4.64083 -8.03218,7.03478 -12.72793,6.36396 -13.04373,-1.86339 -23.124,-15.07239 -28.99137,-26.87006 -4.21929,-8.48383 -6.44041,-19.52462 -2.82843,-28.28427 1.97877,-4.79884 6.96612,-11.080404 12.02081,-9.8995 15.10142,3.52807 10.89828,29.25961 19.09189,42.42641 z"
         id="path875"
         inkscape:connector-curvature="0"
         sodipodi:nodetypes="aaaaaaa" />
      <path
         style="fill:#5ab532;stroke:#000000;stroke-width:3;stroke-linecap:butt;stroke-linejoin:miter;stroke-opacity:1"
         d="m 263,135.5 c -0.0329,12.22843 2.19396,16.39031 9,19.5 6.80604,3.10969 22.5,-6.5 22.5,-6.5 l 13.5,-52.500001 -23,-7.5 c 0,0 -21.96708,34.771571 -22,47.000001 z"
         id="path873"
         inkscape:connector-curvature="0"
         sodipodi:nodetypes="zzcccz" />
      <path
         style="display:inline;fill:#5ab532;stroke:#000000;stroke-width:3"
         d="m 89.167343,65.039363 c -2.897244,8.458321 5.960061,13.044989 12.262697,12.59827 -7.85823,-0.849981 -27.57876,12.937579 -19.00699,21.208936 2.93083,2.036581 6.694645,1.536441 9.172746,-0.701272 9.637704,-7.704677 14.561194,-11.342544 19.550534,-14.644413 -0.16619,0.10286 -3.83593,2.442087 -4.98934,3.301869 -7.751696,6.557821 -16.337964,12.403179 -22.60382,20.360587 -2.916451,9.21649 13.602367,5.43119 16.047006,3.48352 3.070454,-2.93824 5.198594,-6.49276 8.000794,-9.67598 3.30593,-3.906236 7.15707,-11.448494 11.57516,-14.177618 0.30102,-0.131966 0.40433,-0.569885 0,0 -7.63313,9.671528 -16.5729,18.501998 -22.240509,29.573058 -0.66724,3.7608 2.215065,7.58264 5.933819,8.21832 3.5259,0.83995 9.13242,-0.39671 9.91086,-4.08565 1.52873,-2.58388 2.98521,-5.86623 4.15519,-8.4272 4.99653,-10.05655 8.78137,-19.907866 16.39763,-28.21319 1.01727,-0.128845 0.54131,-0.617396 0,0 -9.97277,12.913985 -16.9956,28.94415 -23.36319,42.04265 -0.79714,0.80387 0.20794,1.8355 0.96171,2.20482 2.78831,2.24544 4.97782,5.46589 8.49639,6.6464 1.94624,0.38951 3.54573,-1.39599 3.93874,-3.15232 0.7262,-2.605 2.33946,-4.77637 3.59313,-7.15332 6.90803,-12.2618 14.40024,-24.23768 20.48276,-36.932166 -0.0973,-2.10408 -0.90339,-4.094723 -1.07146,-6.188521 l 1.62698,3.514964 c 0.39004,1.916835 2.10413,3.789023 4.20925,3.409659 3.15299,-0.51972 5.52622,-2.898987 8.20285,-4.45195 -3.28339,2.287508 -5.86531,3.377313 -8.20285,4.45195 -3.88106,2.163666 -5.82068,2.372248 -8.42661,6.249456 -1.01965,1.74059 -2.47412,5.608138 -3.72159,7.229478 -4.63783,7.89784 -7.7434,14.11136 -13.09933,22.71713 -0.73487,3.28874 -0.3087,12.02438 1.45775,15.04541 0.97437,1.81315 5.51129,1.67847 7.74711,1.53155 2.23114,-0.25823 3.50462,-2.39011 4.3231,-4.2515 1.62058,-2.72048 3.55657,-5.23122 5.11675,-7.98462 7.48695,-12.2693 13.29954,-25.56318 21.85775,-37.166299 -8.02618,11.351789 -16.78104,21.699849 -19.66322,34.492899 -0.8193,4.26083 -1.72838,8.86632 0.0358,13.02309 1.1625,2.95635 7.6082,7.05434 10.70139,8.11013 2.51427,0.69406 5.1625,-0.74657 6.46861,-2.89464 2.7311,-3.72 4.32355,-8.20779 4.70143,-12.80321 1.1571,-17.66738 5.26754,-35.736426 10.65865,-52.101333 -3.9916,11.726046 -6.61112,22.808533 -8.08137,33.484873 -1.47025,10.67635 -2.0605,20.57358 0.97867,30.60129 0.6573,1.84844 1.23752,3.85377 2.55706,5.34773 1.03379,1.00274 2.8042,0.9414 3.70666,-0.21787 2.45637,-2.3152 3.47867,-5.66869 4.63949,-8.73946 1.38545,-4.51485 1.86002,-9.25403 3.17311,-13.78924 2.41178,-9.73437 5.23953,-19.6973 4.10858,-29.827059 -0.38244,-3.208684 -1.69506,-6.233186 -1.83187,-9.479184 0.78218,0.888016 0.97113,2.677785 2.483,2.611624 4.1324,0.619186 8.06714,-1.312414 12.01419,-2.111091 1.08489,-0.235515 2.44861,-0.468843 3.40044,0.111332 0,0 -2.77344,-0.728442 -3.40044,-0.111332 -4.77537,2.360396 -16.48709,-1.413141 -11.89024,13.60586 0.82006,3.76485 -0.7125,6.63118 -1.44641,9.65174 -1.72645,10.44062 -3.88203,19.12054 -6.61036,29.33735 0.26111,2.18388 3.39554,5.4834 5.84719,5.59507 3.71728,-0.075 7.56008,-1.79026 8.33536,-5.2106 0.16353,-1.41572 0.94819,-3.81542 1.65407,-5.1079 5.51536,-15.29775 10.75894,-28.14575 16.70385,-43.278557 2.03753,-1.373878 3.36846,-5.397926 5.66088,-6.256686 -3.71229,3.179494 -6.20204,7.525353 -7.85197,12.078695 -5.36462,12.273808 -10.11306,24.810058 -14.51276,37.456548 -1.11257,3.44604 -2.21968,6.98219 -2.4175,10.61065 1.52035,5.39328 10.01766,2.10196 12.13837,-1.71595 4.66977,-6.14651 8.34046,-19.1455 10.24714,-26.59426 3.74354,-11.25296 7.66005,-21.671245 11.08723,-33.029675 0.94907,0.288321 -0.37131,3.055364 -1.07944,4.222435 -4.18198,12.7271 -7.95551,23.73879 -12.16677,36.61488 -2.45997,6.67533 -5.99224,13.23306 -5.50521,19.92508 0.27859,2.28946 4.10013,2.97164 6.12388,4.1515 6.50498,1.8072 11.15915,-9.14552 13.00081,-14.99374 4.5899,-15.34437 13.71805,-37.661564 12.06178,-42.938193 0.045,-0.835319 -1.27738,-4.148561 -1.27669,-4.984675 2.21184,1.372854 4.86976,1.566757 7.35218,2.132976 -0.93148,0.233648 -2.13786,0.06897 -2.8704,0.695234 -5.0988,15.461928 -10.74024,29.975988 -15.26687,45.094658 -1.01269,4.20644 -1.83882,8.5553 -1.72079,12.87375 1.76033,2.14973 5.25471,2.08943 7.21105,0.25509 3.43809,-2.59393 7.3775,-4.71001 7.88573,-8.93163 0.14049,-1.55441 0.19056,-3.54165 0.40638,-8.68382 3.89024,-14.26536 7.71704,-26.08125 16.10875,-38.295268 0.52298,-0.542115 0.91636,-1.27312 1.62917,-1.58804 -0.1499,2.063442 -2.70127,2.429004 -3.4326,4.327849 -1.46316,3.009538 -4.18215,7.080869 -5.6076,10.132729 -4.97721,9.56437 -7.71043,19.70817 -8.91354,30.5649 -0.29592,2.88574 -0.55463,5.84908 -0.0647,8.72224 0.5265,2.09228 2.67174,4.21819 4.96246,3.40634 1.99449,-0.83039 2.37936,-3.23784 2.52813,-5.14095 0.90864,-4.20916 2.24955,-8.31719 3.53306,-12.41856 2.9535,-8.86416 6.77183,-17.5946 12.4574,-25.05759 2.00633,-1.49055 1.72813,-4.31079 1.37453,-6.488874 -0.17751,-1.805853 -1.08958,-3.692844 -0.50596,-5.482526 0.77601,-0.487468 1.19039,0.473781 1.27904,1.08909 1.88459,5.247639 0.28587,11.09502 -2.69269,15.60661 -1.68163,2.58099 -3.74607,4.93684 -4.88137,7.83901 -3.97973,8.2647 -7.67575,17.01945 -7.8694,26.33448 -0.21077,2.8922 0.2795,6.22183 2.73896,8.09187 1.36584,1.12772 3.60068,1.18604 4.75573,-0.27838 18.70207,-18.07898 38.71309,-48.07292 35.87284,-60.125986 -0.85983,-0.814548 -1.92889,-1.375839 -2.86271,-2.112594 C 285.03024,81.845133 272.37297,78.542606 259.87556,76.540488 252.13548,75.315741 244.36224,74.296796 236.59792,73.245461 225.67356,72.100608 214.66806,72.27476 203.70874,71.707335 170.00071,71.506474 136.01881,71.601889 102.78698,65.224731 96.638909,63.668721 91.230319,60.20166 89.167341,65.039348 Z"
         id="path1019"
         inkscape:connector-curvature="0"
         sodipodi:nodetypes="cccccccccccccccccccccccccccccccccccccccccczccccccccccccccccccccccccccccccccccccccccccccccccccccccccccccccccc" />
      <use
         style="display:inline;stroke-width:3"
         x="0"
         y="0"
         xlink:href="#path1019"
         id="use1428"
         transform="matrix(-0.97538211,0.22052153,0.22052153,0.97538211,597.15441,-50.897654)"
         width="100%"
         height="100%" />
    </g>
    <g
       inkscape:label="YLA"
       inkscape:groupmode="layer"
       id="YLA"
       transform="translate(-67.6272,-542.00467)"
       style="display:inline">
      <g
         id="g844"
         transform="matrix(-0.29283866,-0.67690695,0.67690695,-0.29283866,-69.980666,873.30842)"
         style="stroke-width:4.06760498;stroke-miterlimit:4;stroke-dasharray:none">
        <path
           sodipodi:nodetypes="ccczsccsscccsccsscccsccsccsccccccssscsscccsccccccsccccsccc"
           style="display:inline;fill:#e20909;stroke:#000000;stroke-width:4.06760498;stroke-miterlimit:4;stroke-dasharray:none"
           d="m -26.33903,618.08528 c 0.33912,-7.63481 0.83303,-10.2094 2.26137,-11.78768 5.07734,-3.29411 4.41076,-9.7362 5.09652,-12.13632 23.36265,5.44782 -7.22325,9.11679 13.63666,35.29319 20.85992,26.1764 17.14029,23.81486 19.50509,23.39915 1.28243,-0.22544 2.02384,-1.87057 3.2797,-8.5 2.35296,-12.4209 3.73277,-16.86186 7.12933,-22.94597 3.62998,-6.50225 15.06303,-21.65693 24.18232,-32.05403 9.08919,-10.36279 21.06004,-25.34581 27.61968,-34.5695 7.74841,-10.89526 20.48302,-25.07905 25.17724,-28.04238 2.23278,-1.4095 5.0651,-2.37131 6.47088,-2.1974 l 2.50006,0.30928 -2.93133,3.2702 c -1.61223,1.79861 -3.76735,5.17361 -4.78917,7.5 -11.37376,33.29663 -40.30005,59.68409 -54.80856,89.87464 -2.63359,5.96628 -6.97896,21.82865 -6.19464,22.61297 0.59532,0.59532 2.71406,-0.37532 25.07552,-11.48763 9.35,-4.64639 19.25,-10.14311 22,-12.21492 10.13518,-7.63572 17.55888,-16.84497 21.59475,-26.78872 1.23147,-4.37158 0.22998,-7.85071 -6.21785,-11.56876 -4.02247,-2.56323 -14.20332,-3.23789 -22.38959,-2.49777 -1.90627,0.17235 -3.70438,0.42141 -5.29139,0.74121 l 6.0266,-8.52292 c 1.12959,-0.23573 2.42073,-0.39974 3.80853,-0.49059 7.46623,-0.48875 17.7299,1.14024 20.68381,5.11359 25.05648,18.92569 0.2722,45.16486 -12.3202,55.69625 -12.18036,10.20169 -25.74871,19.00121 -39.11792,25.36925 -5.07279,2.41628 -11.19958,4.31609 -11.21429,4.65829 -0.0147,0.34221 3.85005,1.27223 6.18755,1.63023 2.3375,0.35799 8.18692,1.64594 12.99871,2.86211 10.87428,3.57771 22.9778,6.0636 32.75742,7.21031 23.63136,2.77607 34.86446,8.37296 52.01013,25.91407 4.0472,4.14053 8.28671,7.66099 9.42114,7.82324 3.63577,0.51999 3.12875,4.28197 -0.91384,6.78043 -5.64514,3.48889 -7.37501,2.72686 -24.07255,-10.60419 -13.54172,-10.81149 -15.5818,-11.3243 -46.70106,-11.7391 -27.22759,-0.36293 -30.86058,-0.92007 -45.67236,-7.0041 -3.53232,-1.45093 -7.28411,-4.24519 -7.46429,-4.24519 -0.757,0 0.46471,5.28515 1.34287,6.16331 2.21104,2.21104 7.39458,16.92802 10.67798,30.31663 8.62761,28.24181 21.00498,62.54952 34.1097,86.8588 6.01568,10.50882 11.3783,21.56655 18.85441,30.7871 6.07865,7.4148 11.40174,16.0275 11.40174,18.448 0,2.7445 -4.0307,0.2312 -13.13509,-8.1904 -8.2771,-7.6563 -11.72469,-11.862 -20.28844,-24.75 -5.67429,-8.5394 -11.9448,-18.6763 -13.93447,-22.5263 -3.38066,-6.5416 -23.20386,-47.3562 -26.22715,-54 -3.09344,-6.7979 -10.41485,-24.32829 -10.41485,-24.93731 -4.74346,-6.65819 -7.00103,-18.18449 -11.00764,-25.21027 -1.069,-0.66068 -11.80583,18.25304 -18.34134,30.79188 -14.95907,28.7001 -29.99914,43.6723 -49.98669,49.7612 -7.26251,3.36108 -15.19056,3.38989 -21.72227,3.2304 -13.61922,-0.9274 -28.14426,-10.45931 -26.64735,-14.18774 24.14119,5.11995 43.61758,1.59332 59.06972,-16.56256 6.01752,-6.724 16.76891,-28.43611 21.79157,-44.00749 5.76604,-17.87598 14.46932,-31.08195 23.30235,-35.35795 5.43132,-2.62925 5.76226,-4.46222 1.08439,-6.00606 -17.9082,-14.39717 -29.19397,-31.99784 -29.25341,-47.28248 z"
           id="path833"
           inkscape:connector-curvature="0" />
        <path
           sodipodi:nodetypes="ccc"
           inkscape:connector-curvature="0"
           id="path851"
           d="m 88.43327,575.05944 c -12.36693,1.20212 -27.69666,4.39329 -30.93592,12.2481 8.37872,-2.24095 17.78829,-3.10744 27.14784,-4.04061"
           style="display:inline;fill:#e20909;stroke:#000000;stroke-width:4.06760498;stroke-linecap:butt;stroke-linejoin:miter;stroke-opacity:1;stroke-miterlimit:4;stroke-dasharray:none" />
        <path
           sodipodi:nodetypes="ccccc"
           inkscape:connector-curvature="0"
           id="path853"
           d="m 15.1026,672.12502 c 2.9805,3.57185 4.44209,9.92836 9.41878,9.84052 3.6501,-1.00442 7.43286,2.03037 12.23036,-15.04193 4.10039,-3.92915 -4.37109,-10.79174 -12.23036,-11.38688 -5.26736,0.13433 -19.37057,1.66721 -9.41878,16.58829 z"
           style="display:inline;fill:none;stroke:#000000;stroke-width:4.06760498;stroke-linecap:butt;stroke-linejoin:miter;stroke-opacity:1;stroke-miterlimit:4;stroke-dasharray:none" />
        <ellipse
           ry="5.6934409"
           rx="6.8883605"
           cy="667.55621"
           cx="25.92717"
           id="path855"
           style="display:inline;opacity:1;fill:none;fill-opacity:1;stroke:#000000;stroke-width:4.06760498;stroke-linejoin:bevel;stroke-miterlimit:4;stroke-dasharray:none;stroke-opacity:1" />
      </g>
    </g>
  </g>
  <g
     inkscape:groupmode="layer"
     id="ecusson"
     inkscape:label="7 - écusson"
     style="display:inline" />
  <g
     inkscape:groupmode="layer"
     id="effet3d"
     inkscape:label="8 - effet 3D"
     style="display:inline"
     sodipodi:insensitive="true">
    <g
       transform="translate(0,3.4999999e-6)"
       id="layer2-5">
      <path
         inkscape:connector-curvature="0"
         d="m 300,658.5 c 0,0 298.5,-112.5 298.5,-397.5 0,-285.5 0,-258.5 0,-258.5 l -597,0 0,258.5 C 1.5,546 300,658.5 300,658.5 Z"
         id="ecu-3d"
         style="opacity:1;fill:url(#effet-3d-ecu);fill-opacity:1;fill-rule:evenodd;stroke:none;stroke-width:1px;stroke-linecap:butt;stroke-linejoin:miter;stroke-opacity:1" />
    </g>
  </g>
  <g
     inkscape:groupmode="layer"
     id="contour"
     inkscape:label="9 - contour"
     style="display:inline"
     sodipodi:insensitive="true">
    <path
       style="opacity:1;fill:none;fill-opacity:1;fill-rule:evenodd;stroke:#000000;stroke-width:3;stroke-linecap:butt;stroke-linejoin:miter;stroke-miterlimit:4;stroke-dasharray:none;stroke-opacity:1"
       id="ecu-contour"
       d="M 300,658.5 C 300,658.5 1.5,546.17964 1.5,260 1.5,-25.5 1.5,1.5 1.5,1.5 l 597.5,0 0,258.5 c 0,285.5 -298.5,397.5 -298.5,397.5 z"
       inkscape:connector-curvature="0" />
  </g>
</svg>
